<?xml version="1.0" encoding="UTF-8" standalone="no"?><!DOCTYPE svg PUBLIC "-//W3C//DTD SVG 1.1//EN" "http://www.w3.org/Graphics/SVG/1.1/DTD/svg11.dtd"><svg width="100%" height="100%" viewBox="0 0 379 379" version="1.1" xmlns="http://www.w3.org/2000/svg" xmlns:xlink="http://www.w3.org/1999/xlink" xml:space="preserve" xmlns:serif="http://www.serif.com/" style="fill-rule:evenodd;clip-rule:evenodd;stroke-linejoin:round;stroke-miterlimit:2;"><path d="M372.032,198.591l-125.371,34.616c-6.408,1.769 -11.419,6.77 -13.2,13.176l-34.932,125.623c-1.14,4.098 -4.873,6.933 -9.127,6.929c-4.254,-0.003 -7.983,-2.844 -9.116,-6.944l-34.696,-125.544c-1.774,-6.418 -6.789,-11.432 -13.206,-13.205l-125.439,-34.651c-4.103,-1.133 -6.945,-4.867 -6.945,-9.123c-0,-4.257 2.842,-7.991 6.945,-9.124l125.439,-34.651c6.417,-1.773 11.432,-6.787 13.206,-13.205l34.696,-125.544c1.133,-4.1 4.862,-6.941 9.116,-6.944c4.254,-0.003 7.987,2.831 9.127,6.929l34.932,125.623c1.781,6.406 6.792,11.407 13.2,13.177l125.371,34.615c4.103,1.133 6.946,4.866 6.946,9.124c-0,4.257 -2.843,7.99 -6.946,9.123Z" style="fill:url(#_Linear1);"/><defs><linearGradient id="_Linear1" x1="0" y1="0" x2="1" y2="0" gradientUnits="userSpaceOnUse" gradientTransform="matrix(-181.386,737.22,-737.22,-181.386,279.324,-179.142)"><stop offset="0" style="stop-color:#ebfefe;stop-opacity:1"/><stop offset="1" style="stop-color:#dad0e4;stop-opacity:1"/></linearGradient></defs></svg>